# xmcd
#
# Track frame offsets:
#	150
#	11647
#	23500
#	39092
#	52710
#	63057
#	78885
#	90022
#	102510
#	111547
#	122350
#	135817
#	149517
#	164400
#	177667
#	190092
#	204582
#	216025
#	227780
#	240567
#
# Disc length: 3413 seconds
#
# Revision: 2
# Processed by: cddbd v1.5.2PL0 Copyright (c) Steve Scherf et al.
# Submitted via: EasyCDDAExtractor 15.3.0.1
#
DISCID=f60d5314
DTITLE=Cher - Cher, Foxy Lady
DYEAR=1993
DGENRE=Pop
TTITLE0=The Way Of Love
TTITLE1=Gypsys, Tramps and Thieves
TTITLE2=He'll Never Know
TTITLE3=Fire And Rain
TTITLE4=When You Find Out Where You're Goin' Let Me Know
TTITLE5=He Ain't Heavy, He's My Brother
TTITLE6=I Hate To Sleep Alone
TTITLE7=I'm In The Middle
TTITLE8=Touch And Go
TTITLE9=One Honest Man
TTITLE10=Living In A House Divided
TTITLE11=I Might As Well Stay Monday (From Now On)
TTITLE12=Song For You
TTITLE13=Down, Down, Down
TTITLE14=Don't Try To Close A Rose
TTITLE15=The First Time
TTITLE16=Let Me Down Easy
TTITLE17=If I Knew Then
TTITLE18=Don't Hide Your Love
TTITLE19=Never Been To Spain
EXTD=
EXTT0=
EXTT1=
EXTT2=
EXTT3=
EXTT4=
EXTT5=
EXTT6=
EXTT7=
EXTT8=
EXTT9=
EXTT10=
EXTT11=
EXTT12=
EXTT13=
EXTT14=
EXTT15=
EXTT16=
EXTT17=
EXTT18=
EXTT19=
PLAYORDER=
